<svg width="64" height="65" viewBox="0 0 64 65" fill="none" xmlns="http://www.w3.org/2000/svg">
<rect y="0.53125" width="64" height="64" fill="#B25DF8"/>
<g clip-path="url(#clip0_1_89)">
<path d="M31.3497 24.5312H32.6409C32.7177 24.548 32.7944 24.5744 32.8736 24.5792C33.8072 24.6511 34.712 24.862 35.5855 25.1832C38.6838 26.329 41.2133 28.2682 43.2989 30.7994C44.2468 31.95 44.2252 33.1197 43.2845 34.2823C41.9909 35.8835 40.455 37.2138 38.7246 38.3212C37.2991 39.2321 35.7799 39.9344 34.1168 40.2892C33.6296 40.3922 33.1328 40.4521 32.6409 40.5312H31.3497C31.2729 40.5145 31.1937 40.4881 31.1145 40.4833C30.3105 40.4162 29.5234 40.2508 28.7602 39.9919C25.4699 38.8773 22.8276 36.8518 20.6365 34.2008C20.2837 33.7741 20.0557 33.2779 20.0077 32.717C19.9429 31.914 20.2933 31.262 20.7853 30.6676C22.1028 29.0784 23.6508 27.7456 25.4003 26.6502C26.8571 25.7369 28.4074 25.0442 30.1065 24.7206C30.5193 24.6415 30.9345 24.5936 31.3497 24.5312ZM26.9939 32.5324C26.9939 35.2722 29.2378 37.5206 31.9809 37.5254C34.7312 37.5326 36.9943 35.2746 36.9943 32.5277C36.9943 29.7879 34.7456 27.5419 32.0025 27.5371C29.2426 27.5323 26.9939 29.7759 26.9939 32.5324ZM32.936 29.704C31.9401 30.5357 31.7217 31.425 32.3073 32.2712C32.8976 33.1245 33.7856 33.2228 34.9736 32.5684C35.096 33.5895 34.2368 34.8647 33.1184 35.3154C31.8561 35.8235 30.3969 35.4136 29.5906 34.3278C28.7698 33.2228 28.789 31.7247 29.6386 30.67C30.4449 29.668 31.8921 29.2438 32.936 29.704Z" fill="white"/>
</g>
<defs>
<clipPath id="clip0_1_89">
<rect width="24" height="16" fill="white" transform="translate(20 24.5312)"/>
</clipPath>
</defs>
</svg>
