<svg width="64" height="65" viewBox="0 0 64 65" fill="none" xmlns="http://www.w3.org/2000/svg">
<rect y="0.53125" width="64" height="64" fill="#FF5437"/>
<g clip-path="url(#clip0_1_58)">
<path d="M43.604 22.8707C43.484 22.7834 43.3448 22.7534 43.208 22.716H24.8288C25.3016 23.1578 25.604 23.7944 25.604 24.5058C25.604 25.2172 25.3016 25.8513 24.8312 26.2956C30.9152 26.2931 36.9992 26.2906 43.0832 26.2906H43.1552C43.352 26.2931 43.5224 26.2232 43.6736 26.0984C43.844 25.9586 43.9352 25.7689 44 25.5617V23.4648C43.9328 23.2202 43.8104 23.0155 43.604 22.8707ZM23.7968 24.5058C23.7968 25.5967 22.9472 26.4803 21.8984 26.4803C20.8496 26.4803 20 25.5967 20 24.5058C20 23.4149 20.8496 22.5312 21.8984 22.5312C22.9472 22.5312 23.7968 23.4149 23.7968 24.5058ZM43.208 28.0704H24.8288C25.3016 28.5148 25.604 29.1488 25.604 29.8603C25.604 30.5717 25.3016 31.2082 24.8312 31.6501C30.9152 31.6476 36.9992 31.6476 43.0832 31.6476H43.1552C43.352 31.6501 43.5224 31.5777 43.6736 31.4529C43.844 31.3131 43.9352 31.1234 44 30.9162V28.8193C43.9328 28.5747 43.8104 28.37 43.604 28.2252C43.484 28.1403 43.3448 28.1079 43.208 28.0704ZM23.7968 29.8603C23.7968 30.9511 22.9472 31.8373 21.8984 31.8373C20.8496 31.8373 20 30.9511 20 29.8603C20 28.7719 20.8496 27.8857 21.8984 27.8857C22.9472 27.8857 23.7968 28.7719 23.7968 29.8603ZM43.208 33.4199H24.8288C25.3016 33.8643 25.604 34.4983 25.604 35.2097C25.604 35.9212 25.3016 36.5577 24.8312 36.9995C30.9152 36.9971 36.9992 36.9971 43.0832 36.9971H43.1552C43.352 36.9995 43.5224 36.9272 43.6736 36.8023C43.844 36.6626 43.9352 36.4728 44 36.2681V34.1688C43.9328 33.9242 43.8104 33.7195 43.604 33.5747C43.484 33.4898 43.3448 33.4574 43.208 33.4199ZM23.7968 35.2097C23.7968 36.3006 22.9472 37.1868 21.8984 37.1868C20.8496 37.1868 20 36.3006 20 35.2097C20 34.1214 20.8496 33.2352 21.8984 33.2352C22.9472 33.2352 23.7968 34.1214 23.7968 35.2097ZM43.208 38.7669H24.8288C25.3016 39.2087 25.604 39.8453 25.604 40.5567C25.604 41.2681 25.3016 41.9022 24.8312 42.3465C30.9152 42.344 36.9992 42.3415 43.0832 42.3415H43.1552C43.352 42.3465 43.5224 42.2741 43.6736 42.1493C43.844 42.0095 43.9352 41.8198 44 41.6126V39.5158C43.9328 39.2711 43.8104 39.0664 43.604 38.9217C43.484 38.8343 43.3448 38.8043 43.208 38.7669ZM23.7968 40.5567C23.7968 41.6476 22.9472 42.5312 21.8984 42.5312C20.8496 42.5312 20 41.6476 20 40.5567C20 39.4658 20.8496 38.5822 21.8984 38.5822C22.9472 38.5822 23.7968 39.4658 23.7968 40.5567Z" fill="white"/>
</g>
<defs>
<clipPath id="clip0_1_58">
<rect width="24" height="20" fill="white" transform="translate(20 22.5312)"/>
</clipPath>
</defs>
</svg>
