<svg width="64" height="65" viewBox="0 0 64 65" fill="none" xmlns="http://www.w3.org/2000/svg">
<rect y="0.53125" width="64" height="64" fill="#00C6DF"/>
<g clip-path="url(#clip0_1_118)">
<path d="M29.0231 44.5856V30.2838L23.7843 35.5954C23.4227 35.962 22.8351 35.962 22.4735 35.5954L20.2712 33.3624C19.9096 32.9958 19.9096 32.4001 20.2712 32.0335L31.3446 20.8062C31.7062 20.4396 32.2938 20.4396 32.6554 20.8062L43.7288 32.0335C44.0904 32.4001 44.0904 32.9958 43.7288 33.3624L41.5264 35.5954C41.1649 35.962 40.5773 35.962 40.2157 35.5954L34.5907 29.8964V44.5897C34.5907 45.1105 34.1757 45.5312 33.662 45.5312H29.9476C29.4381 45.5271 29.0231 45.1022 29.0231 44.5856Z" fill="white"/>
</g>
<defs>
<clipPath id="clip0_1_118">
<rect width="24" height="25" fill="white" transform="translate(20 20.5312)"/>
</clipPath>
</defs>
</svg>
