<svg width="64" height="65" viewBox="0 0 64 65" fill="none" xmlns="http://www.w3.org/2000/svg">
<rect y="0.53125" width="64" height="64" fill="#FF9209"/>
<g clip-path="url(#clip0_1_133)">
<path d="M22.9643 39.8837L23.8919 37.2421H29.4977L30.4253 39.8837H33.4098L28.3483 26H25.0614L20 39.8837H22.9643ZM28.7315 35.0175H24.6581L26.6948 29.2177L28.7315 35.0175ZM38.2206 40.0625C39.054 40.0625 39.7901 39.8937 40.4286 39.556C41.0672 39.2184 41.568 38.7913 41.9309 38.2749V39.8837H44.7742V28.88H41.9309V30.4492C41.5545 29.946 41.0537 29.5289 40.4286 29.1978C39.8035 28.8668 39.0742 28.7013 38.2407 28.7013C37.2862 28.7013 36.4225 28.933 35.6495 29.3965C34.8765 29.8599 34.2648 30.522 33.8145 31.3827C33.3641 32.2434 33.139 33.2299 33.139 34.3422C33.139 35.4677 33.3641 36.4641 33.8145 37.3314C34.2648 38.1988 34.8765 38.8708 35.6495 39.3475C36.4225 39.8242 37.2795 40.0625 38.2206 40.0625ZM38.9667 37.6194C38.4558 37.6194 37.9752 37.487 37.5249 37.2222C37.0745 36.9574 36.7115 36.5767 36.4359 36.0801C36.1604 35.5836 36.0226 35.0042 36.0226 34.3422C36.0226 33.6801 36.1604 33.1074 36.4359 32.6241C36.7115 32.1408 37.0711 31.7733 37.5148 31.5217C37.9584 31.2701 38.4424 31.1443 38.9667 31.1443C39.491 31.1443 39.9816 31.2734 40.4387 31.5316C40.8958 31.7899 41.2588 32.1606 41.5276 32.6439C41.7965 33.1273 41.9309 33.7066 41.9309 34.3819C41.9309 35.0572 41.7965 35.6365 41.5276 36.1198C41.2588 36.6032 40.8958 36.9739 40.4387 37.2321C39.9816 37.4903 39.491 37.6194 38.9667 37.6194Z" fill="white"/>
</g>
<defs>
<clipPath id="clip0_1_133">
<rect width="24" height="25" fill="white" transform="translate(20 20.5312)"/>
</clipPath>
</defs>
</svg>
