<svg width="64" height="65" viewBox="0 0 64 65" fill="none" xmlns="http://www.w3.org/2000/svg">
<rect y="0.53125" width="64" height="64" fill="#0278ED"/>
<g clip-path="url(#clip0_1_103)">
<path d="M43.9956 23.2282C43.9928 21.8811 43.2113 21.2035 41.8298 21.2386C41.361 21.2494 41.2577 21.4275 41.2689 21.8298C41.2884 22.5101 41.2996 23.1931 41.2633 23.8734C41.2075 24.9749 40.5321 25.6606 39.4045 25.747C38.8073 25.7928 38.2016 25.7901 37.6072 25.7497C36.3959 25.6687 35.7177 24.9587 35.6898 23.7816C35.6759 23.1256 35.6675 22.4696 35.6926 21.8136C35.7094 21.3924 35.5614 21.2413 35.1149 21.244C33.0273 21.2629 30.9397 21.2629 28.8549 21.244C28.3804 21.2386 28.2883 21.4356 28.3023 21.8325C28.3246 22.5128 28.3218 23.1958 28.3051 23.8761C28.2799 24.9047 27.6659 25.6039 26.611 25.72C25.9663 25.7928 25.3076 25.7874 24.6573 25.7497C23.4712 25.6822 22.8098 25.0019 22.7679 23.8464C22.7456 23.1661 22.7428 22.4831 22.7679 21.8028C22.7846 21.3735 22.6116 21.2494 22.1762 21.2413C20.7556 21.2116 20.0021 21.9 20.0021 23.3038C19.9993 30.0178 19.9993 36.7291 20.0021 43.4431C20.0021 44.8901 20.6468 45.5245 22.1399 45.5272C28.7153 45.5326 35.2879 45.5326 41.8633 45.5272C43.3676 45.5272 43.9956 44.9063 43.9956 43.4458C44.0012 40.0901 43.9956 36.7318 43.9956 33.3761C43.9984 29.9908 44.004 26.6081 43.9956 23.2282ZM22.7344 28.0011C22.7316 27.6502 22.8879 27.5098 23.2507 27.5098C24.7857 27.5179 26.3207 27.5179 27.8529 27.5125C28.1823 27.5125 28.3106 27.6448 28.3079 27.9661C28.2967 29.1728 28.2939 30.3822 28.3106 31.589C28.3162 31.9885 28.093 32.0344 27.7692 32.0317C27.0157 32.0236 26.2621 32.029 25.5058 32.029C24.7522 32.029 23.9959 32.0182 23.2423 32.0344C22.8767 32.0425 22.7288 31.9075 22.7316 31.5512C22.7456 30.366 22.7428 29.1836 22.7344 28.0011ZM28.3134 42.3362C28.319 42.7223 28.1878 42.8762 27.7804 42.8708C26.2984 42.8573 24.8164 42.8573 23.3344 42.8708C22.9019 42.8762 22.726 42.7304 22.7316 42.3038C22.7484 41.1457 22.7456 39.9902 22.7344 38.8321C22.7316 38.4784 22.8767 38.3381 23.2423 38.3462C23.9959 38.3624 24.7494 38.3516 25.5058 38.3516C26.2593 38.3516 27.0157 38.3651 27.7692 38.3462C28.1655 38.3354 28.3218 38.4649 28.3162 38.8645C28.2939 40.0226 28.2967 41.1808 28.3134 42.3362ZM27.6827 37.4634C26.9543 37.4337 26.223 37.4553 25.4918 37.4553C24.7885 37.4553 24.0824 37.4337 23.3791 37.4634C22.9214 37.4823 22.7177 37.3608 22.7288 36.8776C22.7539 35.7437 22.7511 34.6072 22.7316 33.4706C22.7232 33.0333 22.9074 32.9118 23.3344 32.9172C24.7941 32.9361 26.2565 32.9442 27.7162 32.9145C28.2241 32.9037 28.3246 33.1035 28.3162 33.5381C28.2939 34.6477 28.2855 35.7599 28.319 36.8695C28.3302 37.35 28.146 37.4823 27.6827 37.4634ZM29.7535 27.5125C31.2411 27.5206 32.7287 27.5233 34.2162 27.5098C34.6181 27.5071 34.7716 27.6502 34.766 28.0416C34.7493 29.2025 34.7465 30.3633 34.766 31.5242C34.7716 31.9372 34.5818 32.0398 34.1995 32.0317C33.4431 32.0155 32.6868 32.0263 31.9305 32.0263C31.1992 32.0263 30.468 32.0155 29.7396 32.0317C29.3712 32.0398 29.2344 31.9048 29.2372 31.5458C29.2512 30.3606 29.2512 29.1728 29.2372 27.9876C29.2316 27.6151 29.4019 27.5098 29.7535 27.5125ZM29.2344 33.449C29.2289 33.0657 29.3544 32.9145 29.7703 32.9199C31.2551 32.9388 32.7398 32.9361 34.2274 32.9199C34.6404 32.9145 34.7716 33.0684 34.766 33.4517C34.7521 34.6099 34.7521 35.7707 34.766 36.9316C34.7716 37.3176 34.6349 37.4715 34.2246 37.4607C33.4683 37.4391 32.7147 37.4553 31.9584 37.4553C31.2551 37.4553 30.5517 37.4418 29.8484 37.4607C29.441 37.4742 29.2233 37.3905 29.2344 36.9289C29.2596 35.7707 29.2512 34.6099 29.2344 33.449ZM34.7716 42.266C34.7828 42.7304 34.6069 42.8816 34.1353 42.8762C32.7008 42.8546 31.2662 42.86 29.8289 42.8735C29.4019 42.8789 29.2205 42.7574 29.2316 42.3146C29.2568 41.1781 29.2568 40.0442 29.2316 38.9077C29.2233 38.4757 29.3824 38.33 29.8177 38.3462C30.5462 38.3705 31.2774 38.3543 32.0086 38.3543C32.7119 38.3543 33.418 38.3732 34.1213 38.3462C34.579 38.33 34.78 38.4541 34.7688 38.9347C34.7409 40.0442 34.7437 41.1565 34.7716 42.266ZM35.6814 28.047C35.6759 27.661 35.8154 27.5044 36.2229 27.5098C37.7076 27.5233 39.1896 27.5233 40.6744 27.5098C41.093 27.5071 41.2912 27.6313 41.2828 28.0713C41.2633 29.2295 41.2689 30.3876 41.28 31.5458C41.2828 31.9021 41.1405 32.0398 40.7721 32.0317C39.9906 32.0182 39.2092 32.0263 38.4305 32.0263C37.7272 32.0263 37.0239 32.0074 36.3234 32.0344C35.8684 32.0506 35.6675 31.9264 35.6814 31.4459C35.7066 30.3147 35.6982 29.1809 35.6814 28.047ZM41.2773 42.3848C41.28 42.7493 41.1014 42.8681 40.7525 42.8681C39.2175 42.8627 37.6797 42.8627 36.1447 42.8681C35.8154 42.8681 35.6814 42.7304 35.6842 42.4118C35.6926 41.2024 35.6954 39.9956 35.6842 38.7862C35.6814 38.384 35.9243 38.3489 36.2396 38.3516C36.9932 38.357 37.7495 38.3543 38.5031 38.3543C39.2566 38.3543 40.0129 38.3651 40.7665 38.3516C41.1321 38.3435 41.28 38.4784 41.2744 38.8375C41.2661 40.0172 41.2661 41.2024 41.2773 42.3848ZM40.6325 37.4607C39.9041 37.4337 39.1757 37.4526 38.4472 37.4526C37.6937 37.4526 36.9374 37.4391 36.1838 37.4553C35.8154 37.4634 35.6759 37.3257 35.6814 36.9693C35.6926 35.7869 35.6982 34.6045 35.6787 33.422C35.6731 33.009 35.8629 32.9145 36.2452 32.9172C37.7272 32.9307 39.2092 32.9334 40.6911 32.9145C41.1321 32.9091 41.2884 33.0549 41.28 33.4787C41.2605 34.6099 41.2549 35.7437 41.2828 36.8749C41.2968 37.3662 41.0819 37.4769 40.6325 37.4607ZM25.6397 24.8291C26.5859 24.767 27.3199 24.0381 27.3673 23.0878C27.3896 22.61 27.3701 22.1294 27.3701 21.6516C27.3701 21.1981 27.3869 20.7445 27.3673 20.291C27.3227 19.3299 26.6054 18.6064 25.6565 18.5362C24.7159 18.4687 23.8647 19.095 23.7363 20.0534C23.5912 21.1279 23.5968 22.2212 23.7335 23.2957C23.8536 24.2541 24.702 24.8885 25.6397 24.8291ZM38.4221 24.8318C39.438 24.8696 40.2585 24.1029 40.3311 23.0203C40.359 22.5938 40.3367 22.1645 40.3367 21.7353H40.3339C40.3339 21.2575 40.3646 20.7742 40.3283 20.2991C40.2474 19.2624 39.4408 18.52 38.4528 18.5335C37.462 18.547 36.6666 19.3083 36.6276 20.345C36.5941 21.2251 36.5969 22.1105 36.6276 22.9906C36.6611 24.0381 37.4202 24.794 38.4221 24.8318Z" fill="white"/>
</g>
<defs>
<clipPath id="clip0_1_103">
<rect width="24" height="27" fill="white" transform="translate(20 18.5312)"/>
</clipPath>
</defs>
</svg>
