<svg width="64" height="65" viewBox="0 0 64 65" fill="none" xmlns="http://www.w3.org/2000/svg">
<rect y="0.53125" width="64" height="64" fill="#E738CE"/>
<path d="M33.1613 22.0938H21.5484C20.6932 22.0938 20 22.7933 20 23.6562V42.4062C20 43.2692 20.6932 43.9688 21.5484 43.9688H33.1613C34.0164 43.9688 34.7097 43.2692 34.7097 42.4062V23.6562C34.7097 22.7933 34.0164 22.0938 33.1613 22.0938Z" fill="white"/>
<path d="M42.4516 22.0938H38.5806C37.7255 22.0938 37.0323 22.7933 37.0323 23.6562V42.4062C37.0323 43.2692 37.7255 43.9688 38.5806 43.9688H42.4516C43.3068 43.9688 44 43.2692 44 42.4062V23.6562C44 22.7933 43.3068 22.0938 42.4516 22.0938Z" fill="white"/>
</svg>
